<?xml version="1.0" encoding="UTF-8" standalone="no"?>
<!-- Created with Inkscape (http://www.inkscape.org/) -->

<svg
   xmlns:dc="http://purl.org/dc/elements/1.1/"
   xmlns:cc="http://creativecommons.org/ns#"
   xmlns:rdf="http://www.w3.org/1999/02/22-rdf-syntax-ns#"
   xmlns:svg="http://www.w3.org/2000/svg"
   xmlns="http://www.w3.org/2000/svg"
   xmlns:sodipodi="http://sodipodi.sourceforge.net/DTD/sodipodi-0.dtd"
   xmlns:inkscape="http://www.inkscape.org/namespaces/inkscape"
   width="450"
   height="400"
   id="svg2"
   version="1.1"
   inkscape:version="0.48.0 r9654"
   sodipodi:docname="folder.svg">
  <defs
     id="defs4" />
  <sodipodi:namedview
     id="base"
     pagecolor="#ffffff"
     bordercolor="#666666"
     borderopacity="1.0"
     inkscape:pageopacity="0.0"
     inkscape:pageshadow="2"
     inkscape:zoom="0.45815216"
     inkscape:cx="313.71702"
     inkscape:cy="622.88242"
     inkscape:document-units="px"
     inkscape:current-layer="layer1"
     showgrid="false"
     inkscape:window-width="1376"
     inkscape:window-height="856"
     inkscape:window-x="64"
     inkscape:window-y="0"
     inkscape:window-maximized="0" />
  <metadata
     id="metadata7">
    <rdf:RDF>
      <cc:Work
         rdf:about="">
        <dc:format>image/svg+xml</dc:format>
        <dc:type
           rdf:resource="http://purl.org/dc/dcmitype/StillImage" />
        <dc:title></dc:title>
      </cc:Work>
    </rdf:RDF>
  </metadata>
  <g
     inkscape:label="Layer 1"
     inkscape:groupmode="layer"
     id="layer1"
     transform="translate(0,-652.36218)">
    <g
       id="g4898"
       transform="translate(-619.88141,477.9911)">
      <path
         style="fill:#c2ab7a;fill-opacity:1"
         d="m 731.96966,207.13161 c -6.4106,7e-4 -13.7797,-0.01 -22.2812,0 l -27.90739,0.3103 c -33.05175,0.38 -35.68422,0.071 -37.74888,8.0945 -0.74313,2.0746 -2.19704,4.954 -3.21875,6.2657 -1.79234,2.3008 -1.875,7.8495 -1.875,160.4843 0,87.0093 0.31952,158.50709 0.6875,158.87499 0.36798,0.3678 92.95552,0.5451 205.74992,0.4063 l 205.06254,-0.25 0.2813,-152.71869 c 0.2455,-148.0551 0.1884,-152.7627 -1.625,-154.5 -1.0287,-0.9857 -2.4309,-3.4774 -3.0938,-5.5313 -0.6628,-2.0539 -2.4023,-4.6761 -3.875,-5.8437 -2.619,-2.077 -3.2547,-2.1144 -29.9687,-1.625 -75.33264,0.4671 -148.74294,1.1489 -228.43754,0.7031 -2.7526,-0.9083 -3.916,-2.088 -5.8438,-6.2657 -3.5538,-7.701 -1.0317,-8.4104 -45.9062,-8.4048 z"
         id="use4730"
         inkscape:connector-curvature="0"
         sodipodi:nodetypes="cccccscccccsccccc" />
      <path
         style="color:#000000;fill:#d2bb89;fill-opacity:1;fill-rule:nonzero;stroke:none;stroke-width:6;marker:none;visibility:visible;display:inline;overflow:visible;enable-background:accumulate"
         d="m 792.83457,240.58361 c -17.0185,0 -23.375,5.7326 -29.9821,19.3952 -28.4863,0.3177 -98.98499,0.4485 -104.08041,0.4485 -5.09542,0 -18.40625,8.2154 -18.40625,18.4063 l 0,31.875 0,212.5312 0,18.37502 18.40625,0 110.68751,0 261.53123,0 18.4062,0 0,-18.37502 0,-212.5312 0,-31.875 0,-19.8438 c 0,-10.1908 -8.2153,-18.4062 -18.4062,-18.4062 z"
         id="use4732"
         inkscape:connector-curvature="0"
         sodipodi:nodetypes="sczsccccccccccsss" />
    </g>
  </g>
</svg>
